<?xml version="1.0" encoding="UTF-8" standalone="no"?>
<svg width="512" height="512" viewBox="0 0 512 512"
     xmlns="http://www.w3.org/2000/svg">

  <defs>
    <linearGradient id="cloudGrad" x1="0" y1="0" x2="1" y2="1">
      <stop offset="0%" stop-color="#7fd4ff"/>
      <stop offset="100%" stop-color="#1f6fb2"/>
    </linearGradient>
    <linearGradient id="nibGrad" x1="0" y1="0" x2="0" y2="1">
      <stop offset="0%" stop-color="#f5f5f5"/>
      <stop offset="100%" stop-color="#bfc5cc"/>
    </linearGradient>
  </defs>

  <!-- Cloud -->
  <path
    d="M160 280
       C110 280 80 250 80 215
       C80 185 105 160 140 160
       C150 120 185 100 220 100
       C255 100 290 120 300 155
       C335 160 360 185 360 215
       C360 250 330 280 290 280
       Z"
    fill="url(#cloudGrad)"/>

  <!-- Pen nib -->
  <path
    d="M256 220
       C230 220 210 245 210 275
       L256 360
       L302 275
       C302 245 282 220 256 220
       Z"
    fill="url(#nibGrad)"/>

  <!-- Nib hole -->
  <circle cx="256" cy="270" r="8" fill="#1f6fb2"/>

</svg>
